<svg width="24" height="25" viewBox="0 0 24 25" fill="none" xmlns="http://www.w3.org/2000/svg">
<path fill-rule="evenodd" clip-rule="evenodd" d="M8.75952 5.00879C8.75952 4.87072 8.87145 4.75879 9.00952 4.75879H15.0888C15.2269 4.75879 15.3388 4.87072 15.3388 5.00879V5.60133H15C14.7458 5.6012 14.4264 5.60126 14.1043 5.60132C13.981 5.60134 13.8574 5.60136 13.7368 5.60137L12.3503 5.60123L9.99382 5.60133H9.23019H9H8.75952V5.00879ZM7.25952 5.60133V5.00879C7.25952 4.04229 8.04302 3.25879 9.00952 3.25879H15.0888C16.0553 3.25879 16.8388 4.04229 16.8388 5.00879V5.60133H18.75C18.9667 5.60133 19.146 5.67233 19.288 5.81433C19.4293 5.95567 19.5 6.13467 19.5 6.35133C19.5 6.568 19.4293 6.747 19.288 6.88833C19.146 7.03033 18.9667 7.10133 18.75 7.10133H18.5V19.8013C18.5 20.3013 18.325 20.7263 17.975 21.0763C17.625 21.4263 17.2 21.6013 16.7 21.6013H7.3C6.8 21.6013 6.375 21.4263 6.025 21.0763C5.675 20.7263 5.5 20.3013 5.5 19.8013V7.10133H5.25C5.03333 7.10133 4.85433 7.03033 4.713 6.88833C4.571 6.747 4.5 6.568 4.5 6.35133C4.5 6.13467 4.571 5.95567 4.713 5.81433C4.85433 5.67233 5.03333 5.60133 5.25 5.60133H7.25952ZM7 19.8013V7.10133H17V19.8013C17 19.8847 16.971 19.9557 16.913 20.0143C16.8543 20.0723 16.7833 20.1013 16.7 20.1013H7.3C7.21667 20.1013 7.146 20.0723 7.088 20.0143C7.02933 19.9557 7 19.8847 7 19.8013ZM9.613 17.8893C9.471 17.7473 9.4 17.568 9.4 17.3513V9.85133C9.4 9.63467 9.471 9.45533 9.613 9.31333C9.75433 9.172 9.93333 9.10133 10.15 9.10133C10.3667 9.10133 10.546 9.172 10.688 9.31333C10.8293 9.45533 10.9 9.63467 10.9 9.85133V17.3513C10.9 17.568 10.8293 17.7473 10.688 17.8893C10.546 18.0307 10.3667 18.1013 10.15 18.1013C9.93333 18.1013 9.75433 18.0307 9.613 17.8893ZM13.312 17.8893C13.1707 17.7473 13.1 17.568 13.1 17.3513V9.85133C13.1 9.63467 13.1707 9.45533 13.312 9.31333C13.454 9.172 13.6333 9.10133 13.85 9.10133C14.0667 9.10133 14.246 9.172 14.388 9.31333C14.5293 9.45533 14.6 9.63467 14.6 9.85133V17.3513C14.6 17.568 14.5293 17.7473 14.388 17.8893C14.246 18.0307 14.0667 18.1013 13.85 18.1013C13.6333 18.1013 13.454 18.0307 13.312 17.8893Z" fill="#666666"/>
</svg>
